<?xml version="1.0" encoding="UTF-8"?>
<svg width="752pt" height="752pt" version="1.1" viewBox="0 0 752 752" xmlns="http://www.w3.org/2000/svg">
 <g>
  <path d="m361.2 168.81h29.598v73.996h-29.598z"/>
  <path d="m361.2 509.2h29.598v73.996h-29.598z"/>
  <path d="m509.2 361.2h73.996v29.598h-73.996z"/>
  <path d="m168.81 361.2h73.996v29.598h-73.996z"/>
  <path d="m459.71 270.97 52.324-52.324 20.93 20.93-52.324 52.324z"/>
  <path d="m219.03 512.43 52.324-52.324 20.93 20.93-52.324 52.324z"/>
  <path d="m460.1 480.66 20.93-20.93 52.324 52.324-20.93 20.93z"/>
  <path d="m218.65 239.96 20.93-20.93 52.324 52.324-20.93 20.93z"/>
  <path d="m376 272.41c-56.977 0-103.6 46.617-103.6 103.6 0 56.977 46.617 103.6 103.6 103.6 56.977 0 103.6-46.617 103.6-103.6 0-56.98-46.617-103.6-103.6-103.6zm0 177.59c-40.699 0-73.996-33.297-73.996-73.996 0-40.699 33.297-73.996 73.996-73.996s73.996 33.297 73.996 73.996c0.003906 40.695-33.297 73.996-73.996 73.996z"/>
 </g>
</svg>
